<svg width="44" height="52" viewBox="0 0 44 52" fill="none" xmlns="http://www.w3.org/2000/svg">
  <path d="M22 51.2C20.7 51.2 19.48 50.59 18.7 49.54C14.99 44.57 6 32.02 6 21C6 12.16 13.16 5 22 5C30.84 5 38 12.16 38 21C38 32.02 29.01 44.57 25.3 49.54C24.52 50.59 23.3 51.2 22 51.2Z" fill="url(#pinGradient)"/>
  <path d="M22 3C12.06 3 4 11.06 4 21C4 32.66 13.33 45.64 17.1 50.69C18.26 52.24 20.06 53.2 22 53.2C23.94 53.2 25.74 52.24 26.9 50.69C30.67 45.64 40 32.66 40 21C40 11.06 31.94 3 22 3ZM22 49.2C18.09 43.95 8 30.53 8 21C8 13.27 14.27 7 22 7C29.73 7 36 13.27 36 21C36 30.53 25.91 43.95 22 49.2Z" fill="#0F3FB8"/>
  <circle cx="22" cy="21" r="12.5" fill="white" fill-opacity="0.96"/>
  <path d="M18 14.75C16.76 14.75 15.75 15.76 15.75 17V27C15.75 28.24 16.76 29.25 18 29.25H24C25.24 29.25 26.25 28.24 26.25 27V17C26.25 15.76 25.24 14.75 24 14.75H18ZM18.25 17.25H23.75V21H18.25V17.25ZM27.5 16V18.17C27.5 18.43 27.6 18.68 27.78 18.87L29.75 20.92V27.75C29.75 28.44 30.31 29 31 29C31.69 29 32.25 28.44 32.25 27.75V20.42C32.25 20.1 32.13 19.8 31.91 19.57L30 17.57V16C30 15.31 29.44 14.75 28.75 14.75C28.06 14.75 27.5 15.31 27.5 16ZM19 30.5V33C19 33.69 19.56 34.25 20.25 34.25H21.75C22.44 34.25 23 33.69 23 33V30.5H19Z" fill="#0B63F6"/>
  <defs>
    <linearGradient id="pinGradient" x1="10" y1="8" x2="35" y2="46" gradientUnits="userSpaceOnUse">
      <stop stop-color="#1A7DF8"/>
      <stop offset="1" stop-color="#12B76A"/>
    </linearGradient>
  </defs>
</svg>
